PathFileType	4	(X/Y/Z)	Patient4_TMGait_0pt4_02_right_25.trc.trc
DataRate	CameraRate	NumFrames	NumMarkers	Units	OrigDataRate	OrigDataStartFrame	OrigNumFrames
70.707070707071	70.707070707071	4	33	mm	70.707070707071	71	       141
Frame#	Time	Sacral			L.Shoulder			Chest			R.Shoulder			Neck			R.ASIS			L.ASIS			R.Thigh.Superior			R.Thigh.Lateral			R.Thigh.Inferior			R.Patella			L.Thigh.Superior			L.Thigh.Lateral			L.Thigh.Inferior			L.Patella			L.Shank.Superior			L.Shank.Lateral			L.Shank.Inferior			R.Shank.Superior			R.Shank.Lateral			R.Shank.Inferior			R.Heel			R.Midfoot.Superior			R.Midfoot.Lateral			R.Toe			L.Heel			L.Midfoot.Lateral			L.Midfoot.Superior			L.Toe			L.Elbow			L.Wrist			R.Elbow			R.Wrist			
		X1	Y1	Z1	X2	Y2	Z2	X3	Y3	Z3	X4	Y4	Z4	X5	Y5	Z5	X6	Y6	Z6	X7	Y7	Z7	X8	Y8	Z8	X9	Y9	Z9	X10	Y10	Z10	X11	Y11	Z11	X12	Y12	Z12	X13	Y13	Z13	X14	Y14	Z14	X15	Y15	Z15	X16	Y16	Z16	X17	Y17	Z17	X18	Y18	Z18	X19	Y19	Z19	X20	Y20	Z20	X21	Y21	Z21	X22	Y22	Z22	X23	Y23	Z23	X24	Y24	Z24	X25	Y25	Z25	X26	Y26	Z26	X27	Y27	Z27	X28	Y28	Z28	X29	Y29	Z29	X30	Y30	Z30	X31	Y31	Z31	X32	Y32	Z32	X33	Y33	Z33	

71	33.880000000000	855.755370248257	1000.394136143494	528.939406238488	1008.430923750743	1442.380653368749	354.579876935788	1129.739695701055	1366.634834263409	498.332710980294	1065.685240336772	1426.239867497536	685.719467362054	1013.520861747494	1494.600178800172	515.397751727522	1095.969119702837	942.185714141206	621.231434819683	1054.748670985352	966.270110565256	349.036477520512	1105.589950426430	733.048170910078	588.662792696569	1015.275510798968	631.067147449022	657.339434537894	1073.980731045085	572.377070987155	571.693244290354	1061.302174657222	487.200007985336	577.394362083500	1129.758240686689	774.744230156708	364.595289438562	1072.631712469403	645.750571549421	291.627337830635	1180.464575491543	586.803857393938	341.648254467553	1203.670803011703	521.033111452249	338.257377231624	1185.447127995108	448.223531997139	328.496229274925	1112.477764190292	322.568569608009	277.132949785652	1197.050287760373	218.644773668822	326.313016913675	1027.866735302959	398.842118538772	585.565420819840	952.622018947511	299.547219268117	651.641271968043	983.023122246562	203.740223131053	582.824870541714	838.759916559306	41.716744657126	559.788547729651	1012.649384413086	97.805745741085	582.013133904624	928.003315896585	36.414214824320	627.397257675780	1134.251236909103	47.664376108364	598.502934198357	1106.725296106407	44.351138803038	362.924269824327	1179.287261962391	46.115579294044	281.857806044836	1253.857015683664	119.991018575717	302.776893915434	1385.408781158642	84.469961656538	273.672223263682	897.099892001894	1110.105869443037	240.376543291730	937.366540524678	852.415721841031	201.112603950176	1135.136707337586	1083.634113876988	796.817638989424	1372.669407642861	1015.574145467000	728.628872487954	
72	33.894142857143	856.116476470848	999.768638213878	526.765491242446	1008.261690084711	1441.544833407905	351.972157512645	1129.335225741603	1366.305747325770	496.179911442839	1064.523944611329	1425.824952531209	683.350329940326	1012.667191484132	1494.005129177722	512.785057206202	1096.113420851461	941.914629558216	620.183107343284	1055.804770840211	965.127633013472	347.813348283185	1104.966783714136	732.279798797485	588.438723647924	1013.287420297382	630.854094282717	656.544961686899	1072.124127083125	571.474813228104	571.534578502214	1058.647935343612	486.209448401638	577.118737904484	1129.922461886594	772.159066432999	364.444081964578	1071.561200548702	643.471429295083	292.221810045993	1178.825373470804	584.065882928742	342.803181562931	1200.743171948527	517.343542987926	339.961561006615	1181.536360831184	444.374316940918	330.242913438852	1106.247948985205	319.821493123429	279.430789429488	1188.684828714655	214.477627593902	329.217398743143	1024.524902047693	398.318496868535	585.350275298310	948.235351419233	299.799467069320	651.380680162933	978.150237581216	203.535251152972	582.858207856558	833.123252125227	41.795119102289	559.843248006846	1007.123580348344	97.659617302947	582.031418626009	922.341668152489	36.411089510359	627.424088726821	1128.636341913309	47.253391388371	598.522682292296	1094.452012059206	42.841180747041	366.065383607825	1167.066547471358	43.117068806084	284.972085653640	1243.684349602150	114.597575537263	306.459181959080	1374.413749638190	75.536982635522	277.205354989070	897.312337175799	1109.106008269513	237.911491730593	940.647195939566	851.827217390207	198.641234122143	1134.031036864278	1083.019276708772	793.611104150478	1371.736521663848	1020.394561670032	722.236171310035	
73	33.908285714286	856.577013516879	999.188647432142	524.419066775400	1008.355473211007	1440.730780513984	349.179558537632	1129.097036401645	1366.000487909172	493.921791581748	1063.409833557438	1425.462437670094	680.823012413137	1011.960307490762	1493.441325553075	509.988345769575	1096.350285957813	941.623349749614	619.008969025346	1056.968224991103	964.029434719278	346.520369402528	1104.534950248605	731.496606538923	588.034077071766	1011.513536491609	630.622411008912	655.550454590038	1070.510020223715	570.553686340384	571.178114917691	1056.240310243797	485.171096846220	576.646143577184	1129.985297172844	769.355701716809	364.335510704578	1070.334625169867	641.287559888599	292.613392585040	1176.843249376779	581.253070015121	344.090687090790	1197.460511968692	513.674388627920	341.666363898532	1177.393219116631	440.686456265053	331.792706755537	1100.083483919763	317.143838522835	281.434075690822	1180.557711238223	210.575137469992	331.801442722519	1021.387994064203	397.773094264748	584.960035803022	944.020761333996	300.109182392855	650.996536990020	973.380687739951	203.345813194650	582.815527814265	827.509980341550	41.932178024886	559.901419277355	1001.627675051482	97.527397027632	582.037912770917	916.700465837769	36.432074971303	627.435679352138	1123.036534057821	46.786316399627	598.555455830346	1082.799792401240	41.452885564945	368.759908171794	1155.459785026994	40.496416324612	287.624014611783	1233.906998874724	109.682976924106	309.803986493222	1363.895968251618	67.418599643916	280.376909599742	898.015665412424	1108.103250499840	235.096393321807	944.385069861270	851.255575918412	195.823936105446	1132.754348663543	1082.524983701028	790.528808823582	1370.585521738733	1025.296189793810	716.356556149893	
74	33.922428571429	857.077977113340	998.703031276596	521.947415100968	1008.698933020652	1439.967198039920	346.241837316742	1129.032644309696	1365.720514994679	491.567774316320	1062.416602620207	1425.189774641311	678.155788977540	1011.422509230511	1492.940590659435	507.032105765675	1096.618740085103	941.312004029662	617.660638836662	1058.130105988546	963.037606694285	345.125695468729	1104.230064736403	730.718136968930	587.368031515256	1009.957576794033	630.374430973792	654.327900288761	1069.128396083108	569.634393195942	570.570100450216	1054.103916203173	484.092053956635	575.940358914241	1129.981154267644	766.573391407037	364.213173541879	1069.089728119618	639.358308264716	292.743923274385	1174.694216811059	578.597573473298	345.402447685104	1194.053330551164	510.271751391985	343.264712439774	1173.275120166935	437.367254288535	333.058101967625	1094.306118131656	314.726591301841	283.001017072658	1172.977376397055	207.145341624703	333.962146119487	1018.470225700746	397.209324800097	584.364671489785	940.004263721125	300.478735940073	650.469602052946	968.726664673761	203.181183869270	582.674712633651	821.923276289673	42.154266862991	559.959575793410	996.166161248962	97.420296961706	582.030108312982	911.083993877240	36.488420258277	627.425703722532	1117.452795583149	46.263959385038	598.600530167734	1072.155863344277	40.275159130681	370.919697934778	1144.851237436619	38.388321485102	289.727435809129	1224.825143236894	105.508484658507	312.670615259094	1354.193529490614	60.529413138260	283.050751844977	899.278620968201	1107.107852319197	231.938823214721	948.587096311511	850.703121283793	192.693214011134	1131.298728072118	1082.179671321038	787.604252147778	1369.236619785117	1030.246152506170	711.057896741427	
